<?xml version="1.0" encoding="utf-8"?>
<!-- Generator: Adobe Illustrator 22.1.0, SVG Export Plug-In . SVG Version: 6.00 Build 0)  -->
<svg version="1.1" id="Layer_1" xmlns="http://www.w3.org/2000/svg" xmlns:xlink="http://www.w3.org/1999/xlink" x="0px" y="0px"
	 viewBox="0 0 1037 414" style="enable-background:new 0 0 1037 414;" xml:space="preserve">
<style type="text/css">
	.st0{fill:#FFFFFF;}
	.st1{fill:#0000FF;}
</style>
<g>
	<path class="st1" d="M122,112.8L85,322.5l16.8,14.1l91.7-33.4l22.1-26.3l10.3-58.5L212,206.8l20.1-24l10.3-58.5l-46-38.6L122,112.8
		z M220.6,220.3l-9.6,54.4l-20.4,24.3l-85.2,31l35-198.6l10.3,8.7l-13.8,78l38.5-14l10.3,8.7l-51.2,18.6l-14.2,80.8l58.4-21.3
		l22.1-26.3l9.3-52.9L220.6,220.3z M153.9,136.4l-10.3-8.7l48.6-17.7l10.3,8.7L153.9,136.4z M204.1,123.3l-5.8,32.8l-20.4,24.3
		l-31.3,11.4l9-50.9L204.1,123.3z M187.5,217.4l-5.8,32.8l-20.4,24.3L130,285.9l9-50.9L187.5,217.4z M237.2,126.3l-9.6,54.4
		l-19.3,23l-10.9-9.2l20.1-24l9.3-52.9L237.2,126.3z M213,168.4l-22.4,26.7l14.6,12.3l0.8,0.7l-9.6,54.4L176,286.8l-49.3,17.9
		l2.3-13.3l35.2-12.8l22.1-26.3l7-39.6l-16.8-14.1l-33.3,12.1l2.3-13.3l35.2-12.8l22.1-26.3l7-39.6l-16.8-14.1l-56.5,20.6l-36,204.2
		l-10.3-8.7l36-204.1l69.2-25.2l27.1,22.7L213,168.4z"/>
	<path class="st1" d="M295.5,93.1l-17.2,14.4L316.1,322l21.1,7.7l17.2-14.4l-37.8-214.6L295.5,93.1z M320.5,318.3l-36.8-208.9
		l10.6-8.9L333.5,323L320.5,318.3z M338.4,322.2L299.2,99.7l13,4.7L349,313.3L338.4,322.2z"/>
	<path class="st1" d="M427.6,117.2l-36.2,205.2l16.4,13.8l20.1-7.3l16.2-92.1l52.7-19.2l3.7-21.1l-16.4-13.8l-32.6,11.8l8.8-49.9
		l70.3-25.5l3.7-21.1l-16.4-13.8L427.6,117.2z M406.7,329.1l-10.1-8.5l35.2-199.8l12.4-4.5L406.7,329.1z M492.8,214.1l-47.5,17.3
		l2.3-13l47.6-17.5L492.8,214.1z M459.5,122.8l-13.9,79.1l37.7-13.7l10,8.4l-50,18.4l-19.5,110.5l-12.4,4.5l38-215.5l65.1-23.7
		l-2.3,13L459.5,122.8z M461.5,139.3l2.3-12.9l50.1-18.2l10.1,8.5L461.5,139.3z M529.3,100l-2.3,13l-10.1-8.5l2.3-13L529.3,100z"/>
	<path class="st1" d="M660.3,142.8c2.9-3.1,4.4-6.8,4.4-11.1c0-2.6-0.7-5-2-7.3c-1.4-2.3-3.4-3.9-6.2-4.9c4.3-2,6.4-5.6,6.4-10.8
		c0-4.1-1.4-7.5-4.1-10.2s-7.1-4-13.1-4h-23.2v52.9h24.3C652.9,147.4,657.4,145.9,660.3,142.8z M632.7,104h13.1
		c4.4,0,6.6,1.9,6.6,5.6c0,1.8-0.7,3.1-2,4.2c-1.3,1-3.3,1.5-6,1.5h-11.8V104z M632.7,124.8h12.5c6.1,0,9.1,2.3,9.1,6.9
		c0,1.7-0.6,3.1-1.7,4.3c-1.1,1.2-2.9,1.9-5.4,1.9h-14.6V124.8z"/>
	<path class="st1" d="M684.4,136.5h20.4l4.1,11h11l-20.2-52.9h-10l-20.2,52.9h11L684.4,136.5z M692.9,113.4c0.8-2,1.4-3.6,1.7-4.8
		c0.3,1.2,0.9,2.7,1.7,4.8l5.2,13.7h-13.7L692.9,113.4z"/>
	<path class="st1" d="M755.2,145.8c3-1.1,5.5-2.5,7.4-4.2c1.9-1.7,3.5-3.8,4.8-6.1c1.3-2.3,2.2-4.7,2.8-7.1c0.5-2.4,0.8-4.9,0.8-7.4
		c0-3.4-0.5-6.7-1.4-9.7c-1-3-2.4-5.9-4.4-8.4c-2-2.6-4.6-4.6-8-6.1c-3.4-1.5-7.3-2.2-11.7-2.2h-17.8v52.9h17.5
		C748.8,147.4,752.2,146.9,755.2,145.8z M737.7,104.2h9.4c4.3,0,7.6,1.6,9.9,4.9c2.3,3.3,3.4,7.2,3.4,11.8c0,4.5-1.2,8.4-3.5,11.7
		c-2.3,3.3-5.9,5-10.7,5h-8.5V104.2z"/>
	<rect x="626.9" y="185.2" class="st1" width="10.2" height="52.9"/>
	<path class="st1" d="M675.1,187.4c-3.4-1.5-7.3-2.2-11.7-2.2h-17.8V238h17.5c3.7,0,7.1-0.5,10.1-1.6c3-1.1,5.5-2.5,7.4-4.2
		c1.9-1.7,3.5-3.8,4.8-6.1c1.3-2.3,2.2-4.7,2.8-7.1c0.5-2.4,0.8-4.9,0.8-7.4c0-3.4-0.5-6.7-1.4-9.7c-1-3-2.4-5.9-4.4-8.4
		C681.2,190.9,678.5,188.9,675.1,187.4z M674.9,223.4c-2.3,3.4-5.9,5-10.7,5h-8.5v-33.5h9.4c4.3,0,7.6,1.7,9.9,5
		c2.3,3.3,3.4,7.2,3.4,11.8C678.4,216.1,677.3,220,674.9,223.4z"/>
	<polygon class="st1" points="735.3,194.8 735.3,185.2 699.2,185.2 699.2,238 736.9,238 736.9,228.4 709.4,228.4 709.4,215.6 
		724.7,215.6 724.7,205.9 709.4,205.9 709.4,194.8 	"/>
	<path class="st1" d="M778.1,227.1l4.1,11h11l-20.2-52.9h-10L742.7,238h11l4.1-11H778.1z M766.3,204.1c0.8-2,1.4-3.6,1.7-4.8
		c0.3,1.2,0.9,2.7,1.7,4.8l5.2,13.8h-13.7L766.3,204.1z"/>
	<polygon class="st1" points="632.7,285.5 657.9,285.5 657.9,275.8 622.5,275.8 622.5,328.7 632.7,328.7 632.7,306.2 648.7,306.2 
		648.7,296.6 632.7,296.6 	"/>
	<path class="st1" d="M674.6,275.8l-20.2,52.9h11l4.1-11h20.4l4.1,11h11l-20.2-52.9H674.6z M672.7,308.4l5.2-13.8
		c0.8-2,1.4-3.6,1.7-4.8c0.3,1.2,0.9,2.7,1.7,4.8l5.2,13.8H672.7z"/>
	<path class="st1" d="M730.5,319.7c-3.8,0-6.7-1.8-8.7-5.3c-2-3.5-3-7.6-3-12.2c0-2.9,0.3-5.6,1-8c0.7-2.5,1.9-4.7,3.7-6.6
		c1.8-1.9,4.1-2.8,6.9-2.8c2.2,0,4,0.5,5.4,1.5c1.5,1,2.9,2.6,4.3,4.8l9.1-4.2c-1.4-3.3-3.7-6.1-6.9-8.5c-3.2-2.3-7.2-3.5-12-3.5
		c-3.9,0-7.4,0.8-10.4,2.5c-3,1.7-5.3,3.9-7,6.6c-1.7,2.7-2.9,5.6-3.7,8.7c-0.8,3-1.2,6.2-1.2,9.4c0,3.5,0.4,6.8,1.2,9.8
		c0.8,3.1,2,6,3.7,8.6c1.7,2.7,4,4.8,6.9,6.4c3,1.6,6.4,2.4,10.4,2.4c8.7,0,15-4.4,19-13.1l-9.4-3.5
		C737.4,317.4,734.2,319.7,730.5,319.7z"/>
	<polygon class="st1" points="754.4,285.6 769.5,285.6 769.5,328.7 779.7,328.7 779.7,285.6 794.8,285.6 794.8,275.8 754.4,275.8 	
		"/>
	<path class="st1" d="M843.1,287c-1.2-2.4-2.6-4.4-4.4-6.2c-1.7-1.8-4-3.2-6.6-4.3c-2.7-1.1-5.7-1.6-9-1.6s-6.3,0.5-9,1.6
		c-2.7,1.1-4.9,2.5-6.6,4.3c-1.7,1.8-3.2,3.9-4.4,6.2c-1.2,2.4-2.1,4.8-2.6,7.4c-0.5,2.5-0.8,5.2-0.8,7.9c0,2.7,0.3,5.4,0.8,7.9
		c0.5,2.5,1.4,5,2.6,7.4s2.7,4.4,4.4,6.2c1.7,1.8,4,3.2,6.6,4.3c2.7,1.1,5.7,1.6,9,1.6s6.3-0.5,9-1.6c2.7-1.1,4.9-2.5,6.6-4.3
		c1.7-1.8,3.2-3.9,4.4-6.2c1.2-2.4,2-4.8,2.5-7.4c0.5-2.5,0.8-5.2,0.8-7.9c0-2.7-0.3-5.4-0.8-7.9C845.1,291.8,844.3,289.3,843.1,287
		z M835.1,308.2c-0.5,2-1.2,3.8-2.1,5.6c-1,1.8-2.3,3.2-4,4.3c-1.7,1.1-3.7,1.6-5.9,1.6c-3,0-5.5-0.9-7.5-2.8
		c-2-1.9-3.4-4.1-4.2-6.6c-0.8-2.5-1.1-5.2-1.1-8.2c0-2.1,0.2-4.1,0.7-6c0.5-1.9,1.1-3.8,2.1-5.6c0.9-1.8,2.3-3.2,4-4.3
		c1.7-1.1,3.7-1.6,6-1.6c2.3,0,4.3,0.5,6,1.6c1.7,1.1,3,2.5,4,4.2s1.6,3.6,2.1,5.6c0.5,2,0.7,4,0.7,6.2
		C835.8,304.3,835.6,306.2,835.1,308.2z"/>
	<path class="st1" d="M896.1,301.5c1.8-2.9,2.7-6,2.7-9.2c0-4.8-1.4-8.8-4.2-11.9c-2.8-3.1-7.3-4.6-13.5-4.6h-24.6v52.9h10.2V309
		h10.7l9.9,19.7h11.5l-10.3-21.1C891.8,306.4,894.3,304.4,896.1,301.5z M886.6,297.3c-1.1,1.3-2.9,2-5.3,2h-14.5v-13.8h14.5
		c2.5,0,4.2,0.7,5.3,2c1.1,1.3,1.6,2.9,1.6,4.9C888.2,294.4,887.7,296,886.6,297.3z"/>
	<polygon class="st1" points="940.3,275.8 927.2,297.4 914.1,275.8 902.6,275.8 922.1,308.1 922.1,328.7 932.3,328.7 932.3,308.1 
		951.8,275.8 	"/>
</g>
</svg>
